<svg xmlns="http://www.w3.org/2000/svg" version="1.1" xmlns:xlink="http://www.w3.org/1999/xlink" xmlns:svgjs="http://svgjs.com/svgjs" width="1440" height="560" preserveAspectRatio="none" viewBox="0 0 1440 560"><g mask="url(&quot;#SvgjsMask1042&quot;)" fill="none"><rect width="1440" height="560" x="0" y="0" fill="#0e2a47"></rect><path d="M1106.1286417501137 78.43375651051306L1109.481017351722 174.43323333762908 1251.8040447915919 121.40493152165897z" fill="rgba(107, 150, 255, 0.4)" class="triangle-float2"></path><path d="M550.8648844837896 468.5983508129078L489.2534564360921 392.5145735067423 405.9335045006926 522.9736042313714z" fill="rgba(107, 150, 255, 0.4)" class="triangle-float2"></path><path d="M801.6446055109703 302.11974276284246L719.0999157188567 397.0765460835487 896.6014088316765 384.6644325549562z" fill="rgba(107, 150, 255, 0.4)" class="triangle-float3"></path><path d="M271.9476912848936 153.8124707088602L348.54594607896644 215.8405144117033 410.5739897818096 139.24225961763045 333.9757349877367 77.21421591478735z" fill="rgba(107, 150, 255, 0.4)" class="triangle-float3"></path><path d="M948.187,194.559C986.177,196,1029.501,193.353,1049.09,160.771C1069.045,127.58,1053.152,86.618,1032.949,53.577C1013.826,22.302,984.844,-4.579,948.187,-4.249C911.983,-3.923,883.732,23.498,866.031,55.081C848.789,85.845,841.824,123.203,859.723,153.589C877.4,183.6,913.382,193.239,948.187,194.559" fill="rgba(107, 150, 255, 0.4)" class="triangle-float1"></path><path d="M1298.0712193431607 624.7531842995616L1409.9160460730568 611.0203663602698 1396.1832281337652 499.1755396303737 1284.338401403869 512.9083575696653z" fill="rgba(107, 150, 255, 0.4)" class="triangle-float3"></path><path d="M478.537,523.12C510.368,523.478,534.419,496.263,548.203,467.569C560.147,442.704,556.232,414.341,542.198,390.593C528.444,367.318,505.569,350.112,478.537,349.684C450.795,349.245,425.132,364.477,411.286,388.52C397.467,412.517,399.159,441.258,411.536,466.03C425.592,494.162,447.091,522.766,478.537,523.12" fill="rgba(107, 150, 255, 0.4)" class="triangle-float1"></path><path d="M861.7834840962049 253.92279563521726L981.2650730803068 215.10087403707786 942.4431514821674 95.61928505297593 822.9615624980655 134.44120665111532z" fill="rgba(107, 150, 255, 0.4)" class="triangle-float1"></path><path d="M1018.7969310741236 355.1425407472426L848.0911117500943 330.98548051815817 902.1009229861837 471.68584915547103z" fill="rgba(107, 150, 255, 0.4)" class="triangle-float1"></path><path d="M1287.028,658.398C1343.764,662.181,1404.657,648.152,1435.149,600.157C1467.494,549.244,1464.827,481.483,1431.263,431.365C1400.757,385.814,1341.779,376.17,1287.028,378.985C1237.963,381.508,1190.946,402.436,1166.384,444.985C1141.824,487.53,1145.399,539.687,1169.574,582.452C1194.165,625.952,1237.169,655.074,1287.028,658.398" fill="rgba(107, 150, 255, 0.4)" class="triangle-float3"></path><path d="M435.8816292978707-20.759794179022563L484.28691629485195 74.24093060324472 579.2876410771192 25.83564360626344 530.8823540801379-69.16508117600384z" fill="rgba(107, 150, 255, 0.4)" class="triangle-float2"></path><path d="M453.28252531915933 229.8509668597141L469.341718015887 344.913616552758 550.4493685232815 283.79461801858895z" fill="rgba(107, 150, 255, 0.4)" class="triangle-float3"></path><path d="M144.578,114.07C169.836,114.258,192.771,99.166,204.732,76.918C216.102,55.769,212.498,30.7,200.617,9.833C188.592,-11.288,168.858,-27.648,144.578,-28.733C118.396,-29.903,91.929,-18.468,79.132,4.403C66.579,26.837,72.784,53.957,85.958,76.032C98.752,97.471,119.613,113.884,144.578,114.07" fill="rgba(107, 150, 255, 0.4)" class="triangle-float3"></path><path d="M95.906,357.153C125.333,357.078,152.831,342.971,168.361,317.976C184.832,291.467,189.734,258.009,174.394,230.83C158.825,203.245,127.513,187.517,95.906,189.599C67.283,191.484,47.657,215.166,33.494,240.111C19.565,264.644,9.531,293.455,22.806,318.349C36.719,344.439,66.338,357.229,95.906,357.153" fill="rgba(107, 150, 255, 0.4)" class="triangle-float2"></path><path d="M1389.685,533.104C1430.276,531.888,1462.68,504.725,1484.572,470.522C1508.828,432.627,1530.789,386.221,1508.84,346.945C1486.566,307.086,1435.287,298.419,1389.685,300.724C1348.572,302.802,1310.867,322.705,1289.717,358.023C1267.945,394.379,1263.399,439.718,1284.411,476.519C1305.584,513.6,1347.004,534.383,1389.685,533.104" fill="rgba(107, 150, 255, 0.4)" class="triangle-float1"></path><path d="M69.439,510.599C104.985,511.756,142.144,497.062,158.061,465.258C172.887,435.634,155.666,402.489,137.368,374.874C121.465,350.874,98.227,331.956,69.439,331.515C39.915,331.062,13.311,347.607,-2.196,372.734C-18.592,399.303,-24.121,432.094,-9.726,459.798C5.769,489.619,35.851,509.506,69.439,510.599" fill="rgba(107, 150, 255, 0.4)" class="triangle-float1"></path><path d="M980.225,501.164C1028.93,500.655,1071.95,470.26,1094.773,427.23C1116.231,386.775,1107.673,340.288,1087.313,299.269C1063.732,251.76,1033.255,197.428,980.225,196.447C926.307,195.449,890.519,247.121,866.047,295.175C844.229,338.017,838.146,387.618,861.454,429.668C885.465,472.987,930.7,501.681,980.225,501.164" fill="rgba(107, 150, 255, 0.4)" class="triangle-float3"></path><path d="M306.9285624048504 402.27850884174916L395.83196674765077 364.5412526229308 358.0947105288324 275.63784828013047 269.1913061860321 313.3751044989488z" fill="rgba(107, 150, 255, 0.4)" class="triangle-float3"></path></g><defs><mask id="SvgjsMask1042"><rect width="1440" height="560" fill="#ffffff"></rect></mask><style>
            @keyframes float1 {
                0%{transform: translate(0, 0)}
                50%{transform: translate(-10px, 0)}
                100%{transform: translate(0, 0)}
            }

            .triangle-float1 {
                animation: float1 5s infinite;
            }

            @keyframes float2 {
                0%{transform: translate(0, 0)}
                50%{transform: translate(-5px, -5px)}
                100%{transform: translate(0, 0)}
            }

            .triangle-float2 {
                animation: float2 4s infinite;
            }

            @keyframes float3 {
                0%{transform: translate(0, 0)}
                50%{transform: translate(0, -10px)}
                100%{transform: translate(0, 0)}
            }

            .triangle-float3 {
                animation: float3 6s infinite;
            }
        </style></defs></svg>